{"title":"Open.House.2010.DVDRIP.XviD-FEEL-FREE","uid":5684070,"size":880197031,"categoryP":"video","categoryS":"movies","magnet":"?xt=urn:btih:45dd0e5dbc734f0ea47e7188ebe5b1127471b17e&amp;dn=Open.House.2010.DVDRIP.XviD-FEEL-FREE&amp;tr=udp%3A%2F%2Ftracker.openbittorrent.com%3A80&amp;tr=udp%3A%2F%2Fopen.demonii.com%3A1337&amp;tr=udp%3A%2F%2Ftracker.coppersurfer.tk%3A6969&amp;tr=udp%3A%2F%2Fexodus.desync.com%3A6969","seeders":2,"leechers":0,"uploader":"raymondhome","files":8,"time":1278890431,"description":"Love for All and Sharing is the first step to solving all the problems of humanity.\n\nWebsites I want to share.\n\n     &lt;a href=&quot;\nhttp://www.shareintl.org/&quot; rel=&quot;nofollow&quot; target=&quot;_NEW&quot;&gt;\nhttp://www.shareintl.org/&lt;/a&gt;\n\n     &lt;a href=&quot;\nhttp://www.lightmiddleway.com&quot; rel=&quot;nofollow&quot; target=&quot;_NEW&quot;&gt;\nhttp://www.lightmiddleway.com&lt;/a&gt;\n\n\nThank you very much\n\nNo credit for me...credit to EVERYONE for sharing\n\n &lt;a href=&quot;\nhttp://thepiratebay.se/user/raymondhome/&quot; rel=&quot;nofollow&quot; target=&quot;_NEW&quot;&gt;\nhttp://thepiratebay.se/user/raymondhome/&lt;/a&gt;\n\nPLOT\nA couple on the verge of a nasty divorce attempt to sell their empty love nest and move on with their lives, separately. After a successful open house they are horrified to discover, days later, that a potential buyer didn't leave their home. While Alice is being held captive in the basement, the unannounced house guest moves in upstairs. She senses her capture is being kept a rebellious secret. She knows her way only way out if she can only get out alive.\n\nLanguage:English\nEncoder: Tony2\n..........................................\nDuration : 1h 26mn\nOverall bit rate : 1 349 Kbps\n...........................................\nVideo\nFormat : xvid\nCodec ID : xvid\nDuration : 1h 26mn\nBit rate : 1 080 Kbps\nWidth : 720 pixels\nHeight : 304 pixels\nDisplay aspect ratio : 2.35:1\nFrame rate : 23.976 fps\nResolution : 24 bits\nBits/(Pixel*Frame) : 0.206\nStream size : 671 MiB (80%)\n............................................\nAudio\nID : 1\nFormat : MPEG Audio\nFormat version : Version 1\nFormat profile : Layer 3\nFormat settings, Mode : Joint stereo / MS Stereo\nCodec ID : 55\nCodec ID/Hint : MP3\nDuration : 1h 26mn\nBit rate mode : Constant\nBit rate : 256 Kbps\nChannel(s) : 2 channels\nSampling rate : 48.0 KHz\nResolution : 16 bits\nStream size : 159 MiB (19%)\nAlignment : Aligned on interleaves\nInterleave, duration : 24 ms (0.58 video frame)\nWriting library : LAME3.97\n\ncredit FEEL-FREE &amp; pitic BIG BIG BIG TIME &amp; to all the people who made it possible for us to share this...especially EVERYONE involve in the production of the movie...IF YOU LIKE IT...BUY IT :)\n\n*****help what we can with others in need...the world is ONE big family*****","torrent":{"xt":"urn:btih:45dd0e5dbc734f0ea47e7188ebe5b1127471b17e","amp;dn":"Open.House.2010.DVDRIP.XviD-FEEL-FREE","amp;tr":["udp%3A%2F%2Ftracker.openbittorrent.com%3A80","udp%3A%2F%2Fopen.demonii.com%3A1337","udp%3A%2F%2Ftracker.coppersurfer.tk%3A6969","udp%3A%2F%2Fexodus.desync.com%3A6969"],"infoHash":"45dd0e5dbc734f0ea47e7188ebe5b1127471b17e","infoHashBuffer":{"type":"Buffer","data":[69,221,14,93,188,115,79,14,164,126,113,136,235,229,177,18,116,113,177,126]},"announce":[],"urlList":[]}}